<svg xmlns="http://www.w3.org/2000/svg" width="480" zoomAndPan="magnify" viewBox="0 0 360 120" height="160"
  preserveAspectRatio="xMidYMid meet" xmlns:v="https://vecta.io/nano">
  <defs>
    <clipPath id="A">
      <path d="M4 14h116.293v92H4zm0 0" clip-rule="nonzero" />
    </clipPath>
  </defs>
  <g clip-path="url(#A)">
    <path fill="currentColor"
      d="M40.109 32.891c-18.684 13.309-18.051 40.695-.047 53.508-11.461 8.023-24.832 14.813-35.992 18.824 8.367-5.418 23.293-13.156 19.926-17.719l-.07-.09-.117-.141h.004C8.504 67.734 11.789 38.336 33.141 23.125s50.238-8.73 63.734 12.102v-.004c.031.051.066.102.098.156l.063.094c3.219 4.672 15.406-6.91 23.258-13.043-7.434 9.234-18.215 19.648-29.543 27.859-6.254-21.184-31.961-30.707-50.641-17.398zM78.961 87.34c6.902-4.902 12.023-12.301 14.789-21.789 1.941-6.66 8.066-12 12.543-16.609-1.191 1.707-2.684 3.41-2.527 5.148 1.414 15.879-4.59 32.188-18.492 42.094s-31.297 10.258-45.859 3.746c-1.59-.715-3.691.141-5.695.711 5.824-2.727 12.871-6.773 19.805-6.434 9.879.48 18.547-1.945 25.438-6.867zm0 0"
      fill-rule="evenodd" />
  </g>
  <g fill="currentColor">
    <path
      d="M32.227 59.969c0-15.312 12.414-27.727 27.73-27.727s27.727 12.414 27.727 27.727S75.27 87.695 59.957 87.695s-27.73-12.414-27.73-27.727zm24.727-23.516a17.91 17.91 0 0 0-3.012.48v.266a30.22 30.22 0 0 1 5.809.633c1.914.391 3.77.965 5.566 1.723.449.191.895.391 1.332.602a28.95 28.95 0 0 1 1.301.656 29.81 29.81 0 0 1 2.496 1.508 30.23 30.23 0 0 1 4.492 3.703c1.379 1.375 2.613 2.875 3.703 4.488a29.43 29.43 0 0 1 1.504 2.5 31.07 31.07 0 0 1 .66 1.297c.211.438.41.883.598 1.332.758 1.797 1.336 3.656 1.727 5.57a30.18 30.18 0 0 1 .633 5.805l.266-.004c.242-.988.402-1.992.477-3.008l.02-.27c.004-.039.008-.074.008-.113l.02-.383c.008-.129.008-.254.012-.383l.008-.387.004-.191v-.074c0-.039-.004-.078-.004-.117l-.012-.574-.008-.195-.02-.383c-.125-2.086-.512-4.121-1.156-6.109-1.281-3.988-3.574-7.68-6.562-10.676s-6.687-5.289-10.68-6.566c-1.988-.648-4.023-1.031-6.109-1.156l-.387-.02-.191-.008-.191-.004-.383-.012-.191-.004-.191.008a22.2 22.2 0 0 0-1.535.066zm0 0"
      fill-rule="evenodd" />
    <path
      d="M114.44 53.071v-4.078h-5.266v29.531h5.266V62.743c0-5.687 3.484-8.859 8.109-8.859 4.828 0 6.391 4.234 6.391 8.313v16.328h5.266V62.149c0-4.719 2.563-8.266 7.719-8.266 5.047 0 6.078 4.078 6.078 8.156v16.484h5.25v-16.53c0-7.359-3.484-13-11.484-13-4.234.063-7.516 1.828-9.281 5.047-2.156-4.078-5.797-5.047-9.891-5.047-3.375 0-6.172 1.188-8.156 4.078zm52.182 0v-3.594h-5.25v29.047h5.25V62.743c0-5.047 3.016-9.016 8.547-9.016 6.328 0 7.781 3.75 7.781 9.234v15.563h5.203V62.899c0-8.312-3.75-13.844-12.609-13.844-3.656 0-6.766.906-8.922 4.016zm29.214-11.047c0 2.031 1.672 3.047 3.281 3.047 1.656 0 3.266-1.016 3.266-3.047 0-2.047-1.609-3.016-3.219-3.016-1.656 0-3.328 1.016-3.328 3.016zm.641 7.141h5.266v29.359h-5.266zm33.083.312l-4.734 11.922-3.547 10.094-3.531-10.203-4.781-11.812h-5.578l11.797 29.266h4.188l11.766-29.266zm39.023 13.266c-.594-9.125-7.672-13.687-14.875-13.687-7.672 0-15.078 4.984-15.078 14.969s7.516 15.031 14.984 15.031c5.953 0 11.906-3.156 14.109-9.5h-5.422c-1.719 3.281-5.047 4.828-8.641 4.828-4.344 0-9.766-3.422-9.766-9.125h24.578c.109-.484.172-1.016.172-1.609 0-.312 0-.594-.062-.906zm-5.531-1.828h-18.953c1.078-5.156 5.375-7.25 9.609-7.25 4.188 0 8.328 2.047 9.344 7.25zm17.67-7.844V49.54h-5.203v28.984h5.203V62.79c0-5.312 4.078-9.234 8.969-9.234a9.68 9.68 0 0 1 2.688.375v-4.609c-1.187-.266-2.312-.437-3.437-.437-3.219 0-6.125 1.297-8.219 4.188zm20.988 4.781c0-3 3.016-4.234 6.234-4.234 3.172 0 5.906 1.234 6.172 3.813h5.203c-.375-6.078-5.469-8.547-11.219-8.547-5.641 0-11.594 2.375-11.594 9.078 0 6.5 6.172 8.109 11.375 8.328 2.531.094 7.047.641 7.047 3.859 0 3.438-4.141 4.297-6.766 4.297-3.609 0-6.609-1.609-6.828-4.828h-5.25c.375 6.859 5.953 9.391 11.969 9.391 5.469 0 12.125-1.984 12.125-8.75 0-6.609-6.219-8.328-11.703-8.703-2.578-.156-6.766-.047-6.766-3.703zm54.504 20.672V49.477h-5.266l.047 3.875c-2.562-3.5-6.922-4.359-10.516-4.359-9.828 0-15.516 7.031-15.516 14.875 0 8 5.469 15.141 15.625 15.141 3.594-.062 8.266-1.234 10.359-4.406v3.922zm-5.266-14.547c0 6.984-5.641 10.359-10.469 10.359-6.437 0-10.25-5-10.25-10.469 0-5.75 3.859-10.25 10.25-10.25 4.938 0 10.469 3.438 10.469 10.359zm0 0" />
  </g>
</svg>