<svg xmlns="http://www.w3.org/2000/svg" viewBox="0 0 1080 1080" xmlns:v="https://vecta.io/nano">
  <svg width="1080" height="1080" fill="none">
    <path
      d="M358.324 296.011c-168.138 119.777-162.446 366.263-.414 481.585C254.768 849.788 134.433 910.893 34 947c75.273-48.757 209.628-118.412 179.308-159.461l-.635-.797c-.347-.442-.687-.863-1.048-1.291h.029C73.881 609.608 103.448 345.034 295.616 208.137s452.146-78.58 573.619 108.889v-.037a34.71 34.71 0 0 0 .886 1.409l.546.863c28.955 42.023 138.663-62.182 209.333-117.386-66.9 83.094-163.952 176.839-265.883 250.735-56.293-190.648-287.655-276.375-455.793-156.599zm349.69 490.06c62.11-44.147 108.214-110.733 133.086-196.121 17.46-59.933 72.615-107.982 112.887-149.489-10.727 15.358-24.149 30.715-22.738 46.331 12.727 142.916-41.313 289.719-166.448 378.862-125.135 89.135-281.653 92.329-412.73 33.717-14.308-6.425-33.222 1.247-51.25 6.381 52.409-24.512 115.84-60.951 178.245-57.897 88.901 4.337 166.927-17.504 228.948-61.784zM287.401 539.724c0-137.823 111.722-249.545 249.546-249.545s249.545 111.722 249.545 249.545S674.77 789.27 536.947 789.27 287.401 677.548 287.401 539.724zM509.93 328.089c-9.151.671-18.184 2.11-27.091 4.324v2.391c17.608.192 35.031 2.089 52.263 5.683a265.26 265.26 0 0 1 50.101 15.497 330.12 330.12 0 0 1 11.985 5.409c3.948 1.882 7.852 3.86 11.704 5.934 7.719 4.162 15.209 8.671 22.471 13.541a272.97 272.97 0 0 1 40.426 33.327c12.405 12.406 23.519 25.881 33.327 40.426 4.885 7.277 9.402 14.767 13.549 22.472 2.044 3.852 4.015 7.748 5.919 11.696 1.904 3.941 3.704 7.934 5.394 11.963 6.827 16.198 12.007 32.914 15.527 50.13 3.602 17.232 5.498 34.641 5.705 52.242l2.383-.008c2.2-8.907 3.631-17.933 4.303-27.083.078-.806.13-1.612.183-2.421l.068-1.018.177-3.439.088-3.442v-.027l.082-3.454.036-1.726-.013-.688-.016-1.032-.081-3.454-.045-1.734-.081-1.734-.155-3.469c-1.136-18.766-4.597-37.09-10.405-54.978-11.535-35.881-32.183-69.126-59.082-96.084s-60.182-47.592-96.099-59.112a219.53 219.53 0 0 0-54.986-10.398l-3.476-.162-1.734-.074-1.727-.045-3.454-.081-1.719-.037-1.727.045c-4.62.073-9.218.221-13.8.62z"
      fill-rule="evenodd" fill="currentColor" />
  </svg>
</svg>
