<svg xmlns="http://www.w3.org/2000/svg" version="1.1" xmlns:xlink="http://www.w3.org/1999/xlink" xmlns:svgjs="http://svgjs.com/svgjs" width="1080" height="1080"><svg width="1080" height="1080" viewBox="0 0 1080 1080" fill="none" xmlns="http://www.w3.org/2000/svg">
  <path fill-rule="evenodd" clip-rule="evenodd" d="M358.324 296.011C190.186 415.788 195.878 662.274 357.91 777.596C254.768 849.788 134.433 910.893 34 947C109.273 898.243 243.628 828.588 213.308 787.539L212.673 786.742C212.326 786.3 211.986 785.879 211.625 785.451H211.654C73.8807 609.608 103.448 345.034 295.616 208.137C487.785 71.2402 747.762 129.557 869.235 317.026V316.989C869.523 317.476 869.811 317.926 870.121 318.398L870.667 319.261C899.622 361.284 1009.33 257.079 1080 201.875C1013.1 284.969 916.048 378.714 814.117 452.61C757.824 261.962 526.462 176.235 358.324 296.011ZM708.014 786.071C770.124 741.924 816.228 675.338 841.1 589.95C858.56 530.017 913.715 481.968 953.987 440.461C943.26 455.819 929.838 471.176 931.249 486.792C943.976 629.708 889.936 776.511 764.801 865.654C639.666 954.789 483.148 957.983 352.071 899.371C337.763 892.946 318.849 900.618 300.821 905.752C353.23 881.24 416.661 844.801 479.066 847.855C567.967 852.192 645.993 830.351 708.014 786.071Z" fill="black"></path>
  <path fill-rule="evenodd" clip-rule="evenodd" d="M287.401 539.724C287.401 401.901 399.123 290.179 536.947 290.179C674.77 290.179 786.492 401.901 786.492 539.724C786.492 677.548 674.77 789.27 536.947 789.27C399.123 789.27 287.401 677.548 287.401 539.724ZM509.93 328.089C500.779 328.76 491.746 330.199 482.839 332.413V334.804C500.447 334.996 517.87 336.893 535.102 340.487C552.319 343.999 569.019 349.165 585.203 355.984C589.24 357.711 593.232 359.511 597.188 361.393C601.136 363.275 605.04 365.253 608.892 367.327C616.611 371.489 624.101 375.998 631.363 380.868C645.908 390.683 659.384 401.79 671.789 414.195C684.194 426.601 695.308 440.076 705.116 454.621C710.001 461.898 714.518 469.388 718.665 477.093C720.709 480.945 722.68 484.841 724.584 488.789C726.488 492.73 728.288 496.723 729.978 500.752C736.805 516.95 741.985 533.666 745.505 550.882C749.107 568.114 751.003 585.523 751.21 603.124L753.593 603.116C755.793 594.209 757.224 585.183 757.896 576.033C757.974 575.227 758.026 574.421 758.079 573.612C758.101 573.273 758.123 572.934 758.147 572.594C758.22 571.45 758.272 570.328 758.324 569.155C758.368 567.991 758.39 566.848 758.412 565.713L758.412 565.686L758.494 562.232L758.53 560.506C758.527 560.279 758.522 560.049 758.517 559.818C758.509 559.471 758.501 559.123 758.501 558.786L758.42 555.332L758.375 553.598L758.294 551.864L758.139 548.395C757.003 529.629 753.542 511.305 747.734 493.417C736.199 457.536 715.551 424.291 688.652 397.333C661.753 370.374 628.47 349.741 592.553 338.221C574.665 332.406 556.333 328.945 537.567 327.823L534.091 327.661L532.357 327.587L530.63 327.542L527.176 327.461L525.457 327.424L523.73 327.469C519.11 327.542 514.512 327.69 509.93 328.089Z" fill="black"></path>
</svg><style>@media (prefers-color-scheme: light) { :root { filter: none; } }
@media (prefers-color-scheme: dark) { :root { filter: invert(100%); } }
</style></svg>