<svg xmlns="http://www.w3.org/2000/svg" width="1080" zoomAndPan="magnify" viewBox="0 0 810 810" height="1080"
  preserveAspectRatio="xMidYMid meet" xmlns:v="https://vecta.io/nano">
  <defs>
    <clipPath id="A">
      <path d="M405 0C181.324 0 0 181.324 0 405s181.324 405 405 405 405-181.324 405-405S628.676 0 405 0zm0 0"
        clip-rule="nonzero" />
    </clipPath>
    <clipPath id="B">
      <path d="M76 140h679.578v530H76zm0 0" clip-rule="nonzero" />
    </clipPath>
  </defs>
  <g clip-path="url(#A)">
    <path d="M-81-81h972v972H-81z" />
  </g>
  <g clip-path="url(#B)">
    <path fill="currentColor"
      d="M287.02 246.555c-109.187 77.781-105.492 237.844-.27 312.73-66.98 46.879-145.121 86.563-210.34 110.008 48.879-31.66 136.125-76.895 116.438-103.551l-.414-.516a23.61 23.61 0 0 0-.68-.84h.02c-89.469-114.187-70.266-286 54.523-374.898s293.613-51.027 372.496 70.711v-.023a20.03 20.03 0 0 0 .578.914l.352.563c18.805 27.289 90.047-40.379 135.938-76.23C712.219 239.383 649.195 300.258 583 348.246c-36.555-123.805-186.797-179.473-295.98-101.691zm227.082 318.234c40.332-28.668 70.27-71.906 86.422-127.355 11.34-38.922 47.156-70.125 73.309-97.078-6.969 9.973-15.684 19.945-14.766 30.086 8.262 92.809-26.828 188.141-108.09 246.027s-182.898 59.957-268.02 21.895c-9.289-4.172-21.574.813-33.281 4.145 34.035-15.918 75.227-39.582 115.75-37.598 57.73 2.816 108.398-11.367 148.676-40.121zm0 0"
      fill-rule="evenodd" />
  </g>
  <path fill="currentColor"
    d="M240.961 404.816c0-89.5 72.551-162.051 162.051-162.051s162.051 72.551 162.051 162.051-72.551 162.051-162.051 162.051-162.051-72.551-162.051-162.051zm144.508-137.434a104.73 104.73 0 0 0-17.594 2.809v1.555a175.41 175.41 0 0 1 33.941 3.688c11.18 2.281 22.023 5.637 32.531 10.066a211.32 211.32 0 0 1 7.785 3.512c2.563 1.223 5.098 2.508 7.602 3.852 5.012 2.703 9.875 5.633 14.59 8.793 9.445 6.375 18.195 13.59 26.254 21.645s15.27 16.805 21.641 26.25a174.6 174.6 0 0 1 8.797 14.594c1.328 2.5 2.609 5.031 3.844 7.594s2.406 5.152 3.504 7.77c4.434 10.52 7.797 21.375 10.082 32.555 2.34 11.191 3.57 22.496 3.707 33.926l1.547-.008a105.35 105.35 0 0 0 2.793-17.586c.051-.523.086-1.047.121-1.57l.043-.664.113-2.23.059-2.238v-.016l.055-2.242.023-1.121-.012-.449-.008-.668-.055-2.242-.027-1.129-.055-1.125-.098-2.254a143.24 143.24 0 0 0-6.758-35.699c-7.492-23.301-20.898-44.891-38.367-62.395s-39.082-30.906-62.406-38.387c-11.613-3.777-23.52-6.023-35.707-6.754l-2.258-.105-1.125-.047-1.121-.031-2.242-.051-1.117-.023-1.121.027c-3 .047-5.984.145-8.961.402zm0 0"
    fill-rule="evenodd" />
</svg>