<svg xmlns="http://www.w3.org/2000/svg" xmlns:xlink="http://www.w3.org/1999/xlink" width="1080" zoomAndPan="magnify" viewBox="0 0 810 809.999993" height="1080" preserveAspectRatio="xMidYMid meet" version="1.0"><defs><clipPath id="c780217c63"><path d="M 405 0 C 181.324219 0 0 181.324219 0 405 C 0 628.675781 181.324219 810 405 810 C 628.675781 810 810 628.675781 810 405 C 810 181.324219 628.675781 0 405 0 Z M 405 0 " clip-rule="nonzero"/></clipPath><clipPath id="4627547ac4"><path d="M 76 140 L 755.578125 140 L 755.578125 670 L 76 670 Z M 76 140 " clip-rule="nonzero"/></clipPath></defs><g clip-path="url(#c780217c63)"><rect x="-81" width="972" fill="#000000" y="-80.999999" height="971.999992" fill-opacity="1"/></g><g clip-path="url(#4627547ac4)"><path fill="#ffffff" d="M 287.019531 246.554688 C 177.832031 324.335938 181.527344 484.398438 286.75 559.285156 C 219.769531 606.164062 141.628906 645.847656 76.410156 669.292969 C 125.289062 637.632812 212.535156 592.398438 192.847656 565.742188 L 192.433594 565.226562 C 192.210938 564.9375 191.988281 564.664062 191.753906 564.386719 L 191.773438 564.386719 C 102.304688 450.199219 121.507812 278.386719 246.296875 189.488281 C 371.085938 100.589844 539.910156 138.460938 618.792969 260.199219 L 618.792969 260.175781 C 618.980469 260.492188 619.167969 260.785156 619.371094 261.089844 L 619.722656 261.652344 C 638.527344 288.941406 709.769531 221.273438 755.660156 185.421875 C 712.21875 239.382812 649.195312 300.257812 583 348.246094 C 546.445312 224.441406 396.203125 168.773438 287.019531 246.554688 Z M 514.101562 564.789062 C 554.433594 536.121094 584.371094 492.882812 600.523438 437.433594 C 611.863281 398.511719 647.679688 367.308594 673.832031 340.355469 C 666.863281 350.328125 658.148438 360.300781 659.066406 370.441406 C 667.328125 463.25 632.238281 558.582031 550.976562 616.46875 C 469.714844 674.351562 368.078125 676.425781 282.957031 638.363281 C 273.667969 634.191406 261.382812 639.175781 249.675781 642.507812 C 283.710938 626.589844 324.902344 602.925781 365.425781 604.910156 C 423.15625 607.726562 473.824219 593.542969 514.101562 564.789062 Z M 514.101562 564.789062 " fill-opacity="1" fill-rule="evenodd"/></g><path fill="#ffffff" d="M 240.960938 404.816406 C 240.960938 315.316406 313.511719 242.765625 403.011719 242.765625 C 492.511719 242.765625 565.0625 315.316406 565.0625 404.816406 C 565.0625 494.316406 492.511719 566.867188 403.011719 566.867188 C 313.511719 566.867188 240.960938 494.316406 240.960938 404.816406 Z M 385.46875 267.382812 C 379.527344 267.820312 373.660156 268.753906 367.875 270.191406 L 367.875 271.746094 C 379.308594 271.871094 390.625 273.101562 401.816406 275.433594 C 412.996094 277.714844 423.839844 281.070312 434.347656 285.5 C 436.972656 286.621094 439.5625 287.789062 442.132812 289.011719 C 444.695312 290.234375 447.230469 291.519531 449.734375 292.863281 C 454.746094 295.566406 459.609375 298.496094 464.324219 301.65625 C 473.769531 308.03125 482.519531 315.246094 490.578125 323.300781 C 498.632812 331.355469 505.847656 340.105469 512.21875 349.550781 C 515.390625 354.277344 518.324219 359.140625 521.015625 364.144531 C 522.34375 366.644531 523.625 369.175781 524.859375 371.738281 C 526.097656 374.300781 527.265625 376.890625 528.363281 379.507812 C 532.796875 390.027344 536.160156 400.882812 538.445312 412.0625 C 540.785156 423.253906 542.015625 434.558594 542.152344 445.988281 L 543.699219 445.980469 C 545.128906 440.199219 546.054688 434.335938 546.492188 428.394531 C 546.542969 427.871094 546.578125 427.347656 546.613281 426.824219 C 546.625 426.601562 546.640625 426.382812 546.65625 426.160156 C 546.703125 425.417969 546.738281 424.691406 546.769531 423.929688 C 546.800781 423.171875 546.8125 422.429688 546.828125 421.691406 L 546.828125 421.675781 L 546.882812 419.433594 L 546.90625 418.3125 C 546.902344 418.164062 546.898438 418.015625 546.894531 417.863281 C 546.890625 417.640625 546.886719 417.414062 546.886719 417.195312 L 546.832031 414.953125 L 546.804688 413.824219 L 546.75 412.699219 L 546.652344 410.445312 C 545.914062 398.261719 543.664062 386.359375 539.894531 374.746094 C 532.402344 351.445312 518.996094 329.855469 501.527344 312.351562 C 484.058594 294.84375 462.445312 281.445312 439.121094 273.964844 C 427.507812 270.1875 415.601562 267.941406 403.414062 267.210938 L 401.15625 267.105469 L 400.03125 267.058594 L 398.910156 267.027344 L 396.667969 266.976562 L 395.550781 266.953125 L 394.429688 266.980469 C 391.429688 267.027344 388.445312 267.125 385.46875 267.382812 Z M 385.46875 267.382812 " fill-opacity="1" fill-rule="evenodd"/></svg>